<svg width="580" height="640" viewBox="0 0 580 640" fill="none" xmlns="http://www.w3.org/2000/svg">
<mask id="mask0" mask-type="alpha" maskUnits="userSpaceOnUse" x="0" y="0" width="580" height="640">
<rect width="580" height="640" rx="2" fill="#F9FAFD"/>
</mask>
<g mask="url(#mask0)">
<g filter="url(#filter0_d)">
<rect x="17" y="10" width="168.367" height="189.844" rx="2" fill="white"/>
<rect x="17.5" y="10.5" width="167.367" height="188.844" rx="1.5" stroke="#E4E4E7"/>
</g>
<g filter="url(#filter1_d)">
<rect x="207.816" y="10" width="168.367" height="189.844" rx="2" fill="white"/>
<rect x="208.316" y="10.5" width="167.367" height="188.844" rx="1.5" stroke="#E4E4E7"/>
</g>
<g filter="url(#filter2_d)">
<rect x="398.633" y="10" width="168.367" height="189.844" rx="2" fill="white"/>
<rect x="399.133" y="10.5" width="167.367" height="188.844" rx="1.5" stroke="#E4E4E7"/>
</g>
<g filter="url(#filter3_d)">
<rect x="17" y="225.156" width="168.367" height="189.844" rx="2" fill="white"/>
<rect x="17.5" y="225.656" width="167.367" height="188.844" rx="1.5" stroke="#E4E4E7"/>
</g>
<g filter="url(#filter4_d)">
<rect x="17" y="440" width="168.367" height="189.844" rx="2" fill="white"/>
<rect x="17.5" y="440.5" width="167.367" height="188.844" rx="1.5" stroke="#E4E4E7"/>
</g>
<g filter="url(#filter5_d)">
<rect x="207.816" y="225.156" width="168.367" height="189.844" rx="2" fill="white"/>
<rect x="208.316" y="225.656" width="167.367" height="188.844" rx="1.5" stroke="#E4E4E7"/>
</g>
<g filter="url(#filter6_d)">
<rect x="207.816" y="440" width="168.367" height="189.844" rx="2" fill="white"/>
<rect x="208.316" y="440.5" width="167.367" height="188.844" rx="1.5" stroke="#E4E4E7"/>
</g>
<g filter="url(#filter7_d)">
<rect x="398.633" y="225.156" width="168.367" height="189.844" rx="2" fill="white"/>
<rect x="399.133" y="225.656" width="167.367" height="188.844" rx="1.5" stroke="#E4E4E7"/>
</g>
<g filter="url(#filter8_d)">
<rect x="398.633" y="440" width="168.367" height="189.844" rx="2" fill="white"/>
<rect x="399.133" y="440.5" width="167.367" height="188.844" rx="1.5" stroke="#E4E4E7"/>
</g>
<path d="M36.518 169V153.27H41.05V159.276H46.22V153.27H50.73V169H46.22V162.796H41.05V169H36.518ZM56.784 169V156.746H52.714V153.27H65.386V156.746H61.316V169H56.784ZM67.3696 169V153.27H73.2436L76.2576 161.652L79.2716 153.27H85.0356V169H80.5476V159.21L76.6976 169H75.2016L71.3956 159.21V169H67.3696ZM88.102 169V153.27H92.634V165.502H98.574V169H88.102Z" fill="#313F51"/>
<path d="M229.586 169.198C228.413 169.198 227.459 169.022 226.726 168.67V165.304C227.342 165.509 227.98 165.612 228.64 165.612C230.004 165.612 230.686 164.886 230.686 163.434V153.27H235.218V163.478C235.218 165.37 234.741 166.8 233.788 167.768C232.835 168.721 231.434 169.198 229.586 169.198ZM243.788 169.264C241.603 169.264 239.945 168.817 238.816 167.922C237.687 167.027 237.085 165.722 237.012 164.006H241.302C241.361 164.651 241.573 165.157 241.94 165.524C242.307 165.876 242.923 166.052 243.788 166.052C244.419 166.052 244.91 165.913 245.262 165.634C245.629 165.341 245.812 164.959 245.812 164.49C245.812 164.021 245.643 163.691 245.306 163.5C244.969 163.295 244.309 163.119 243.326 162.972C241.111 162.708 239.564 162.209 238.684 161.476C237.819 160.728 237.386 159.555 237.386 157.956C237.386 156.519 237.936 155.345 239.036 154.436C240.151 153.512 241.632 153.05 243.48 153.05C247.337 153.05 249.405 154.685 249.684 157.956H245.504C245.343 156.827 244.668 156.262 243.48 156.262C242.893 156.262 242.439 156.387 242.116 156.636C241.808 156.871 241.654 157.193 241.654 157.604C241.654 158.059 241.823 158.396 242.16 158.616C242.497 158.836 243.143 159.012 244.096 159.144C246.208 159.379 247.741 159.848 248.694 160.552C249.647 161.241 250.124 162.4 250.124 164.028C250.124 165.524 249.559 166.771 248.43 167.768C247.301 168.765 245.753 169.264 243.788 169.264Z" fill="#313F51"/>
<path d="M424.282 169.264C422.097 169.264 420.439 168.817 419.31 167.922C418.181 167.027 417.579 165.722 417.506 164.006H421.796C421.855 164.651 422.067 165.157 422.434 165.524C422.801 165.876 423.417 166.052 424.282 166.052C424.913 166.052 425.404 165.913 425.756 165.634C426.123 165.341 426.306 164.959 426.306 164.49C426.306 164.021 426.137 163.691 425.8 163.5C425.463 163.295 424.803 163.119 423.82 162.972C421.605 162.708 420.058 162.209 419.178 161.476C418.313 160.728 417.88 159.555 417.88 157.956C417.88 156.519 418.43 155.345 419.53 154.436C420.645 153.512 422.126 153.05 423.974 153.05C427.831 153.05 429.899 154.685 430.178 157.956H425.998C425.837 156.827 425.162 156.262 423.974 156.262C423.387 156.262 422.933 156.387 422.61 156.636C422.302 156.871 422.148 157.193 422.148 157.604C422.148 158.059 422.317 158.396 422.654 158.616C422.991 158.836 423.637 159.012 424.59 159.144C426.702 159.379 428.235 159.848 429.188 160.552C430.141 161.241 430.618 162.4 430.618 164.028C430.618 165.524 430.053 166.771 428.924 167.768C427.795 168.765 426.247 169.264 424.282 169.264ZM431.1 169L436.138 153.27H441.968L446.962 169H442.188L441.352 166.074H436.138L435.302 169H431.1ZM438.756 156.922L437.018 162.972H440.472L438.756 156.922ZM454.21 169.264C452.024 169.264 450.367 168.817 449.238 167.922C448.108 167.027 447.507 165.722 447.434 164.006H451.724C451.782 164.651 451.995 165.157 452.362 165.524C452.728 165.876 453.344 166.052 454.21 166.052C454.84 166.052 455.332 165.913 455.684 165.634C456.05 165.341 456.234 164.959 456.234 164.49C456.234 164.021 456.065 163.691 455.728 163.5C455.39 163.295 454.73 163.119 453.748 162.972C451.533 162.708 449.986 162.209 449.106 161.476C448.24 160.728 447.808 159.555 447.808 157.956C447.808 156.519 448.358 155.345 449.458 154.436C450.572 153.512 452.054 153.05 453.902 153.05C457.759 153.05 459.827 154.685 460.106 157.956H455.926C455.764 156.827 455.09 156.262 453.902 156.262C453.315 156.262 452.86 156.387 452.538 156.636C452.23 156.871 452.076 157.193 452.076 157.604C452.076 158.059 452.244 158.396 452.582 158.616C452.919 158.836 453.564 159.012 454.518 159.144C456.63 159.379 458.162 159.848 459.116 160.552C460.069 161.241 460.546 162.4 460.546 164.028C460.546 165.524 459.981 166.771 458.852 167.768C457.722 168.765 456.175 169.264 454.21 169.264ZM468.346 169.264C466.161 169.264 464.504 168.817 463.374 167.922C462.245 167.027 461.644 165.722 461.57 164.006H465.86C465.919 164.651 466.132 165.157 466.498 165.524C466.865 165.876 467.481 166.052 468.346 166.052C468.977 166.052 469.468 165.913 469.82 165.634C470.187 165.341 470.37 164.959 470.37 164.49C470.37 164.021 470.202 163.691 469.864 163.5C469.527 163.295 468.867 163.119 467.884 162.972C465.67 162.708 464.122 162.209 463.242 161.476C462.377 160.728 461.944 159.555 461.944 157.956C461.944 156.519 462.494 155.345 463.594 154.436C464.709 153.512 466.19 153.05 468.038 153.05C471.896 153.05 473.964 154.685 474.242 157.956H470.062C469.901 156.827 469.226 156.262 468.038 156.262C467.452 156.262 466.997 156.387 466.674 156.636C466.366 156.871 466.212 157.193 466.212 157.604C466.212 158.059 466.381 158.396 466.718 158.616C467.056 158.836 467.701 159.012 468.654 159.144C470.766 159.379 472.299 159.848 473.252 160.552C474.206 161.241 474.682 162.4 474.682 164.028C474.682 165.524 474.118 166.771 472.988 167.768C471.859 168.765 470.312 169.264 468.346 169.264Z" fill="#313F51"/>
<path d="M227.518 386V370.27H233.502C235.629 370.27 237.213 370.725 238.254 371.634C239.295 372.529 239.816 373.827 239.816 375.528V375.616C239.816 377.259 239.281 378.52 238.21 379.4C237.154 380.265 235.651 380.698 233.7 380.698H232.006V386H227.518ZM232.006 377.618H233.304C234.785 377.618 235.526 376.958 235.526 375.638V375.55C235.526 374.289 234.793 373.658 233.326 373.658H232.006V377.618ZM248.734 386.264C246.49 386.264 244.766 385.707 243.564 384.592C242.361 383.463 241.76 381.805 241.76 379.62V370.27H246.27V379.422C246.27 380.581 246.446 381.424 246.798 381.952C247.164 382.465 247.81 382.722 248.734 382.722C249.643 382.722 250.281 382.465 250.648 381.952C251.014 381.424 251.198 380.559 251.198 379.356V370.27H255.752V379.554C255.752 381.783 255.136 383.463 253.904 384.592C252.686 385.707 250.963 386.264 248.734 386.264ZM266.084 386.264C263.474 386.264 261.442 385.531 259.99 384.064C258.553 382.597 257.834 380.654 257.834 378.234V378.058C257.834 375.682 258.612 373.753 260.166 372.272C261.721 370.776 263.694 370.028 266.084 370.028C268.094 370.028 269.78 370.512 271.144 371.48C272.508 372.433 273.264 373.878 273.41 375.814H268.944C268.724 374.318 267.778 373.57 266.106 373.57C264.992 373.57 264.119 373.973 263.488 374.78C262.858 375.587 262.542 376.701 262.542 378.124V378.3C262.542 379.679 262.828 380.779 263.4 381.6C263.987 382.421 264.926 382.832 266.216 382.832C267.243 382.832 268.006 382.612 268.504 382.172C269.018 381.717 269.296 381.145 269.34 380.456H266.392V377.31H273.784V379.246C273.784 381.329 273.117 383.023 271.782 384.328C270.448 385.619 268.548 386.264 266.084 386.264Z" fill="#313F51"/>
<path d="M234.91 571.264C232.226 571.264 230.187 570.545 228.794 569.108C227.401 567.671 226.704 565.713 226.704 563.234V563.058C226.704 560.667 227.459 558.731 228.97 557.25C230.481 555.769 232.402 555.028 234.734 555.028C236.846 555.028 238.547 555.534 239.838 556.546C241.129 557.543 241.862 559.054 242.038 561.078H237.396C237.22 559.421 236.34 558.592 234.756 558.592C233.729 558.592 232.923 558.981 232.336 559.758C231.749 560.535 231.456 561.628 231.456 563.036V563.212C231.456 564.635 231.749 565.735 232.336 566.512C232.923 567.275 233.751 567.656 234.822 567.656C235.629 567.656 236.289 567.443 236.802 567.018C237.33 566.578 237.645 565.933 237.748 565.082H242.236C242.089 567.077 241.356 568.609 240.036 569.68C238.716 570.736 237.007 571.264 234.91 571.264ZM249.665 568.338C250.398 568.338 250.955 568.081 251.337 567.568C251.733 567.04 251.931 566.292 251.931 565.324V565.148C251.931 563.139 251.175 562.134 249.665 562.134C248.931 562.134 248.367 562.391 247.971 562.904C247.575 563.403 247.377 564.136 247.377 565.104V565.28C247.377 567.319 248.139 568.338 249.665 568.338ZM254.153 569.658C252.965 570.729 251.461 571.264 249.643 571.264C247.824 571.264 246.321 570.736 245.133 569.68C243.945 568.624 243.351 567.194 243.351 565.39V565.214C243.351 563.395 243.945 561.936 245.133 560.836C246.335 559.736 247.846 559.186 249.665 559.186C251.469 559.186 252.965 559.729 254.153 560.814C255.341 561.885 255.935 563.315 255.935 565.104V565.28C255.935 567.113 255.341 568.573 254.153 569.658ZM258.246 571V562.178H256.794V559.494H258.246V558.614C258.246 557.221 258.642 556.172 259.434 555.468C260.226 554.764 261.326 554.412 262.734 554.412C263.35 554.412 263.937 554.485 264.494 554.632V557.514C264.157 557.411 263.805 557.36 263.438 557.36C263.013 557.36 262.69 557.477 262.47 557.712C262.265 557.932 262.162 558.233 262.162 558.614V559.494H265.506V558.482C265.506 557.089 265.91 556.04 266.716 555.336C267.523 554.617 268.623 554.258 270.016 554.258C270.574 554.258 271.175 554.339 271.82 554.5V557.382C271.483 557.279 271.124 557.228 270.742 557.228C269.877 557.228 269.444 557.646 269.444 558.482V559.494H271.776V562.178H269.444V571H265.506V562.178H262.162V571H258.246ZM278.603 571.264C276.755 571.264 275.251 570.743 274.093 569.702C272.934 568.661 272.355 567.223 272.355 565.39V565.214C272.355 563.41 272.949 561.958 274.137 560.858C275.325 559.743 276.806 559.186 278.581 559.186C280.267 559.186 281.661 559.685 282.761 560.682C283.875 561.679 284.433 563.161 284.433 565.126V566.16H276.337C276.395 566.923 276.63 567.517 277.041 567.942C277.466 568.353 278.031 568.558 278.735 568.558C279.893 568.558 280.561 568.103 280.737 567.194H284.433C284.257 568.499 283.67 569.504 282.673 570.208C281.69 570.912 280.333 571.264 278.603 571.264ZM276.381 563.938H280.605C280.531 562.501 279.857 561.782 278.581 561.782C277.979 561.782 277.488 561.973 277.107 562.354C276.725 562.721 276.483 563.249 276.381 563.938ZM291.751 571.264C289.903 571.264 288.4 570.743 287.241 569.702C286.082 568.661 285.503 567.223 285.503 565.39V565.214C285.503 563.41 286.097 561.958 287.285 560.858C288.473 559.743 289.954 559.186 291.729 559.186C293.416 559.186 294.809 559.685 295.909 560.682C297.024 561.679 297.581 563.161 297.581 565.126V566.16H289.485C289.544 566.923 289.778 567.517 290.189 567.942C290.614 568.353 291.179 568.558 291.883 568.558C293.042 568.558 293.709 568.103 293.885 567.194H297.581C297.405 568.499 296.818 569.504 295.821 570.208C294.838 570.912 293.482 571.264 291.751 571.264ZM289.529 563.938H293.753C293.68 562.501 293.005 561.782 291.729 561.782C291.128 561.782 290.636 561.973 290.255 562.354C289.874 562.721 289.632 563.249 289.529 563.938ZM233.282 601.264C231.097 601.264 229.439 600.817 228.31 599.922C227.181 599.027 226.579 597.722 226.506 596.006H230.796C230.855 596.651 231.067 597.157 231.434 597.524C231.801 597.876 232.417 598.052 233.282 598.052C233.913 598.052 234.404 597.913 234.756 597.634C235.123 597.341 235.306 596.959 235.306 596.49C235.306 596.021 235.137 595.691 234.8 595.5C234.463 595.295 233.803 595.119 232.82 594.972C230.605 594.708 229.058 594.209 228.178 593.476C227.313 592.728 226.88 591.555 226.88 589.956C226.88 588.519 227.43 587.345 228.53 586.436C229.645 585.512 231.126 585.05 232.974 585.05C236.831 585.05 238.899 586.685 239.178 589.956H234.998C234.837 588.827 234.162 588.262 232.974 588.262C232.387 588.262 231.933 588.387 231.61 588.636C231.302 588.871 231.148 589.193 231.148 589.604C231.148 590.059 231.317 590.396 231.654 590.616C231.991 590.836 232.637 591.012 233.59 591.144C235.702 591.379 237.235 591.848 238.188 592.552C239.141 593.241 239.618 594.4 239.618 596.028C239.618 597.524 239.053 598.771 237.924 599.768C236.795 600.765 235.247 601.264 233.282 601.264ZM246.952 601.264C245.162 601.264 243.703 600.758 242.574 599.746C241.459 598.719 240.902 597.267 240.902 595.39V595.214C240.902 593.351 241.481 591.885 242.64 590.814C243.813 589.729 245.28 589.186 247.04 589.186C248.037 589.186 248.924 589.333 249.702 589.626C250.494 589.905 251.168 590.411 251.726 591.144C252.283 591.877 252.598 592.801 252.672 593.916H248.976C248.8 592.801 248.184 592.244 247.128 592.244C246.424 592.244 245.881 592.493 245.5 592.992C245.118 593.491 244.928 594.217 244.928 595.17V595.346C244.928 597.37 245.683 598.382 247.194 598.382C247.751 598.382 248.206 598.221 248.558 597.898C248.924 597.561 249.137 597.084 249.196 596.468H252.738C252.679 597.949 252.151 599.123 251.154 599.988C250.171 600.839 248.77 601.264 246.952 601.264ZM254.344 601V589.494H258.282V591.782C258.986 590.139 260.225 589.325 262 589.34V593.014C259.521 592.941 258.282 593.784 258.282 595.544V601H254.344ZM263.864 601V589.494H267.802V601H263.864ZM267.362 587.822C266.951 588.203 266.438 588.394 265.822 588.394C265.206 588.394 264.693 588.203 264.282 587.822C263.871 587.441 263.666 586.957 263.666 586.37C263.666 585.783 263.871 585.299 264.282 584.918C264.693 584.522 265.206 584.324 265.822 584.324C266.438 584.324 266.951 584.522 267.362 584.918C267.787 585.299 268 585.783 268 586.37C268 586.957 267.787 587.441 267.362 587.822ZM270.242 604.85V589.494H274.18V591.21C274.987 589.861 276.182 589.186 277.766 589.186C279.174 589.186 280.333 589.707 281.242 590.748C282.166 591.789 282.628 593.256 282.628 595.148V595.324C282.628 597.231 282.166 598.697 281.242 599.724C280.333 600.751 279.167 601.264 277.744 601.264C276.908 601.264 276.175 601.088 275.544 600.736C274.928 600.369 274.474 599.893 274.18 599.306V604.85H270.242ZM274.664 597.502C275.06 598.001 275.625 598.25 276.358 598.25C277.092 598.25 277.649 598.001 278.03 597.502C278.426 597.003 278.624 596.277 278.624 595.324V595.148C278.624 594.165 278.426 593.425 278.03 592.926C277.634 592.413 277.077 592.156 276.358 592.156C275.64 592.156 275.075 592.413 274.664 592.926C274.268 593.439 274.07 594.173 274.07 595.126V595.302C274.07 596.27 274.268 597.003 274.664 597.502ZM288.955 601.264C286.256 601.264 284.907 599.944 284.907 597.304V592.178H283.521V589.494H284.907V587.096H288.845V589.494H291.111V592.178H288.845V596.93C288.845 597.737 289.234 598.14 290.011 598.14C290.407 598.14 290.781 598.074 291.133 597.942V600.934C290.282 601.154 289.556 601.264 288.955 601.264Z" fill="#313F51"/>
<path d="M418.518 386V370.27H424.502C426.629 370.27 428.213 370.725 429.254 371.634C430.295 372.529 430.816 373.827 430.816 375.528V375.616C430.816 377.259 430.281 378.52 429.21 379.4C428.154 380.265 426.651 380.698 424.7 380.698H423.006V386H418.518ZM423.006 377.618H424.304C425.785 377.618 426.526 376.958 426.526 375.638V375.55C426.526 374.289 425.793 373.658 424.326 373.658H423.006V377.618ZM432.87 386V370.27H437.402V376.276H442.572V370.27H447.082V386H442.572V379.796H437.402V386H432.87ZM450.122 386V370.27H456.106C458.232 370.27 459.816 370.725 460.858 371.634C461.899 372.529 462.42 373.827 462.42 375.528V375.616C462.42 377.259 461.884 378.52 460.814 379.4C459.758 380.265 458.254 380.698 456.304 380.698H454.61V386H450.122ZM454.61 377.618H455.908C457.389 377.618 458.13 376.958 458.13 375.638V375.55C458.13 374.289 457.396 373.658 455.93 373.658H454.61V377.618Z" fill="#313F51"/>
<path d="M418.518 601V585.27H423.05V597.502H428.99V601H418.518ZM436.237 601.264C434.389 601.264 432.886 600.743 431.727 599.702C430.569 598.661 429.989 597.223 429.989 595.39V595.214C429.989 593.41 430.583 591.958 431.771 590.858C432.959 589.743 434.441 589.186 436.215 589.186C437.902 589.186 439.295 589.685 440.395 590.682C441.51 591.679 442.067 593.161 442.067 595.126V596.16H433.971C434.03 596.923 434.265 597.517 434.675 597.942C435.101 598.353 435.665 598.558 436.369 598.558C437.528 598.558 438.195 598.103 438.371 597.194H442.067C441.891 598.499 441.305 599.504 440.307 600.208C439.325 600.912 437.968 601.264 436.237 601.264ZM434.015 593.938H438.239C438.166 592.501 437.491 591.782 436.215 591.782C435.614 591.782 435.123 591.973 434.741 592.354C434.36 592.721 434.118 593.249 434.015 593.938ZM452.199 600.296C451.29 600.941 450.014 601.264 448.371 601.264C446.729 601.264 445.445 600.934 444.521 600.274C443.612 599.599 443.135 598.624 443.091 597.348H446.721C446.795 597.788 446.949 598.118 447.183 598.338C447.418 598.543 447.807 598.646 448.349 598.646C449.288 598.646 449.757 598.331 449.757 597.7C449.757 597.421 449.596 597.209 449.273 597.062C448.965 596.915 448.415 596.783 447.623 596.666C446.054 596.461 444.932 596.087 444.257 595.544C443.583 595.001 443.245 594.143 443.245 592.97C443.245 591.753 443.715 590.821 444.653 590.176C445.592 589.516 446.765 589.186 448.173 589.186C451.327 589.186 453.021 590.425 453.255 592.904H449.691C449.545 592.141 449.053 591.76 448.217 591.76C447.807 591.76 447.484 591.841 447.249 592.002C447.029 592.163 446.919 592.383 446.919 592.662C446.919 592.926 447.059 593.131 447.337 593.278C447.631 593.41 448.137 593.52 448.855 593.608C450.527 593.813 451.73 594.187 452.463 594.73C453.211 595.258 453.585 596.116 453.585 597.304C453.585 598.639 453.123 599.636 452.199 600.296ZM463.629 600.296C462.72 600.941 461.444 601.264 459.801 601.264C458.158 601.264 456.875 600.934 455.951 600.274C455.042 599.599 454.565 598.624 454.521 597.348H458.151C458.224 597.788 458.378 598.118 458.613 598.338C458.848 598.543 459.236 598.646 459.779 598.646C460.718 598.646 461.187 598.331 461.187 597.7C461.187 597.421 461.026 597.209 460.703 597.062C460.395 596.915 459.845 596.783 459.053 596.666C457.484 596.461 456.362 596.087 455.687 595.544C455.012 595.001 454.675 594.143 454.675 592.97C454.675 591.753 455.144 590.821 456.083 590.176C457.022 589.516 458.195 589.186 459.603 589.186C462.756 589.186 464.45 590.425 464.685 592.904H461.121C460.974 592.141 460.483 591.76 459.647 591.76C459.236 591.76 458.914 591.841 458.679 592.002C458.459 592.163 458.349 592.383 458.349 592.662C458.349 592.926 458.488 593.131 458.767 593.278C459.06 593.41 459.566 593.52 460.285 593.608C461.957 593.813 463.16 594.187 463.893 594.73C464.641 595.258 465.015 596.116 465.015 597.304C465.015 598.639 464.553 599.636 463.629 600.296Z" fill="#313F51"/>
<path d="M43.91 386.264C41.226 386.264 39.1873 385.545 37.794 384.108C36.4007 382.671 35.704 380.713 35.704 378.234V378.058C35.704 375.667 36.4593 373.731 37.97 372.25C39.4807 370.769 41.402 370.028 43.734 370.028C45.846 370.028 47.5473 370.534 48.838 371.546C50.1287 372.543 50.862 374.054 51.038 376.078H46.396C46.22 374.421 45.34 373.592 43.756 373.592C42.7293 373.592 41.9227 373.981 41.336 374.758C40.7493 375.535 40.456 376.628 40.456 378.036V378.212C40.456 379.635 40.7493 380.735 41.336 381.512C41.9227 382.275 42.7513 382.656 43.822 382.656C44.6287 382.656 45.2887 382.443 45.802 382.018C46.33 381.578 46.6453 380.933 46.748 380.082H51.236C51.0893 382.077 50.356 383.609 49.036 384.68C47.716 385.736 46.0073 386.264 43.91 386.264ZM58.9754 386.264C56.79 386.264 55.1327 385.817 54.0034 384.922C52.874 384.027 52.2727 382.722 52.1994 381.006H56.4894C56.548 381.651 56.7607 382.157 57.1274 382.524C57.494 382.876 58.11 383.052 58.9754 383.052C59.606 383.052 60.0974 382.913 60.4494 382.634C60.816 382.341 60.9994 381.959 60.9994 381.49C60.9994 381.021 60.8307 380.691 60.4934 380.5C60.156 380.295 59.496 380.119 58.5134 379.972C56.2987 379.708 54.7514 379.209 53.8714 378.476C53.006 377.728 52.5734 376.555 52.5734 374.956C52.5734 373.519 53.1234 372.345 54.2234 371.436C55.338 370.512 56.8194 370.05 58.6674 370.05C62.5247 370.05 64.5927 371.685 64.8714 374.956H60.6914C60.53 373.827 59.8554 373.262 58.6674 373.262C58.0807 373.262 57.626 373.387 57.3034 373.636C56.9954 373.871 56.8414 374.193 56.8414 374.604C56.8414 375.059 57.01 375.396 57.3474 375.616C57.6847 375.836 58.33 376.012 59.2834 376.144C61.3954 376.379 62.928 376.848 63.8814 377.552C64.8347 378.241 65.3114 379.4 65.3114 381.028C65.3114 382.524 64.7467 383.771 63.6174 384.768C62.488 385.765 60.9407 386.264 58.9754 386.264ZM73.1121 386.264C70.9267 386.264 69.2694 385.817 68.1401 384.922C67.0107 384.027 66.4094 382.722 66.3361 381.006H70.6261C70.6847 381.651 70.8974 382.157 71.2641 382.524C71.6307 382.876 72.2467 383.052 73.1121 383.052C73.7427 383.052 74.2341 382.913 74.5861 382.634C74.9527 382.341 75.1361 381.959 75.1361 381.49C75.1361 381.021 74.9674 380.691 74.6301 380.5C74.2927 380.295 73.6327 380.119 72.6501 379.972C70.4354 379.708 68.8881 379.209 68.0081 378.476C67.1427 377.728 66.7101 376.555 66.7101 374.956C66.7101 373.519 67.2601 372.345 68.3601 371.436C69.4747 370.512 70.9561 370.05 72.8041 370.05C76.6614 370.05 78.7294 371.685 79.0081 374.956H74.8281C74.6667 373.827 73.9921 373.262 72.8041 373.262C72.2174 373.262 71.7627 373.387 71.4401 373.636C71.1321 373.871 70.9781 374.193 70.9781 374.604C70.9781 375.059 71.1467 375.396 71.4841 375.616C71.8214 375.836 72.4667 376.012 73.4201 376.144C75.5321 376.379 77.0647 376.848 78.0181 377.552C78.9714 378.241 79.4481 379.4 79.4481 381.028C79.4481 382.524 78.8834 383.771 77.7541 384.768C76.6247 385.765 75.0774 386.264 73.1121 386.264Z" fill="#313F51"/>
<path d="M42.282 601.108C40.0967 601.108 38.4393 600.66 37.31 599.766C36.1807 598.871 35.5793 597.566 35.506 595.85H39.796C39.8547 596.495 40.0673 597.001 40.434 597.368C40.8007 597.72 41.4167 597.896 42.282 597.896C42.9127 597.896 43.404 597.756 43.756 597.478C44.1227 597.184 44.306 596.803 44.306 596.334C44.306 595.864 44.1373 595.534 43.8 595.344C43.4627 595.138 42.8027 594.962 41.82 594.816C39.6053 594.552 38.058 594.053 37.178 593.32C36.3127 592.572 35.88 591.398 35.88 589.8C35.88 588.362 36.43 587.189 37.53 586.28C38.6447 585.356 40.126 584.894 41.974 584.894C45.8313 584.894 47.8993 586.529 48.178 589.8H43.998C43.8367 588.67 43.162 588.106 41.974 588.106C41.3873 588.106 40.9327 588.23 40.61 588.48C40.302 588.714 40.148 589.037 40.148 589.448C40.148 589.902 40.3167 590.24 40.654 590.46C40.9913 590.68 41.6367 590.856 42.59 590.988C44.702 591.222 46.2347 591.692 47.188 592.396C48.1413 593.085 48.618 594.244 48.618 595.872C48.618 597.368 48.0533 598.614 46.924 599.612C45.7947 600.609 44.2473 601.108 42.282 601.108ZM54.9861 601.108C52.2875 601.108 50.9381 599.788 50.9381 597.148V592.022H49.5521V589.338H50.9381V586.94H54.8761V589.338H57.1421V592.022H54.8761V596.774C54.8761 597.58 55.2648 597.984 56.0421 597.984C56.4381 597.984 56.8121 597.918 57.1641 597.786V600.778C56.3135 600.998 55.5875 601.108 54.9861 601.108ZM60.6549 604.694L62.5689 599.678L57.9709 589.338H62.2389L64.6149 595.476L66.8149 589.338H70.5769L64.4169 604.694H60.6549ZM72.026 600.844V584.278H75.942V600.844H72.026ZM82.1668 601.108C81.0081 601.108 80.0695 600.748 79.3508 600.03C78.6468 599.296 78.2948 598.233 78.2948 596.84V589.338H82.2328V596.202C82.2328 597.492 82.7755 598.138 83.8608 598.138C84.4768 598.138 84.9535 597.954 85.2908 597.588C85.6428 597.221 85.8188 596.678 85.8188 595.96V589.338H89.7568V600.844H85.8188V599.062C85.1148 600.426 83.8975 601.108 82.1668 601.108ZM100.428 600.14C99.5185 600.785 98.2425 601.108 96.5998 601.108C94.9572 601.108 93.6738 600.778 92.7498 600.118C91.8405 599.443 91.3638 598.468 91.3198 597.192H94.9498C95.0232 597.632 95.1772 597.962 95.4118 598.182C95.6465 598.387 96.0352 598.49 96.5778 598.49C97.5165 598.49 97.9858 598.174 97.9858 597.544C97.9858 597.265 97.8245 597.052 97.5018 596.906C97.1938 596.759 96.6438 596.627 95.8518 596.51C94.2825 596.304 93.1605 595.93 92.4858 595.388C91.8112 594.845 91.4738 593.987 91.4738 592.814C91.4738 591.596 91.9432 590.665 92.8818 590.02C93.8205 589.36 94.9938 589.03 96.4018 589.03C99.5552 589.03 101.249 590.269 101.484 592.748H97.9198C97.7732 591.985 97.2818 591.604 96.4458 591.604C96.0352 591.604 95.7125 591.684 95.4778 591.846C95.2578 592.007 95.1478 592.227 95.1478 592.506C95.1478 592.77 95.2872 592.975 95.5658 593.122C95.8592 593.254 96.3652 593.364 97.0838 593.452C98.7558 593.657 99.9585 594.031 100.692 594.574C101.44 595.102 101.814 595.96 101.814 597.148C101.814 598.482 101.352 599.48 100.428 600.14Z" fill="#313F51"/>
<circle cx="42" cy="37" r="7" fill="#E34F26"/>
<circle cx="233" cy="37" r="7" fill="#DECE42"/>
<circle cx="424" cy="37" r="7" fill="#BF4080"/>
<circle cx="233" cy="254" r="7" fill="#494949"/>
<circle cx="233" cy="468.844" r="7" fill="#78350F"/>
<circle cx="424" cy="254" r="7" fill="#FF6347"/>
<circle cx="424" cy="468.844" r="7" fill="#075985"/>
<circle cx="42" cy="254" r="7" fill="#4E96EB"/>
<circle cx="42" cy="468.844" r="7" fill="#10B981"/>
</g>
<defs>
<filter id="filter0_d" x="12" y="10" width="173.367" height="197.844" filterUnits="userSpaceOnUse" color-interpolation-filters="sRGB">
<feFlood flood-opacity="0" result="BackgroundImageFix"/>
<feColorMatrix in="SourceAlpha" type="matrix" values="0 0 0 0 0 0 0 0 0 0 0 0 0 0 0 0 0 0 127 0" result="hardAlpha"/>
<feOffset dx="-5" dy="8"/>
<feColorMatrix type="matrix" values="0 0 0 0 0.894118 0 0 0 0 0.894118 0 0 0 0 0.905882 0 0 0 1 0"/>
<feBlend mode="normal" in2="BackgroundImageFix" result="effect1_dropShadow"/>
<feBlend mode="normal" in="SourceGraphic" in2="effect1_dropShadow" result="shape"/>
</filter>
<filter id="filter1_d" x="202.816" y="10" width="173.367" height="197.844" filterUnits="userSpaceOnUse" color-interpolation-filters="sRGB">
<feFlood flood-opacity="0" result="BackgroundImageFix"/>
<feColorMatrix in="SourceAlpha" type="matrix" values="0 0 0 0 0 0 0 0 0 0 0 0 0 0 0 0 0 0 127 0" result="hardAlpha"/>
<feOffset dx="-5" dy="8"/>
<feColorMatrix type="matrix" values="0 0 0 0 0.894118 0 0 0 0 0.894118 0 0 0 0 0.905882 0 0 0 1 0"/>
<feBlend mode="normal" in2="BackgroundImageFix" result="effect1_dropShadow"/>
<feBlend mode="normal" in="SourceGraphic" in2="effect1_dropShadow" result="shape"/>
</filter>
<filter id="filter2_d" x="393.633" y="10" width="173.367" height="197.844" filterUnits="userSpaceOnUse" color-interpolation-filters="sRGB">
<feFlood flood-opacity="0" result="BackgroundImageFix"/>
<feColorMatrix in="SourceAlpha" type="matrix" values="0 0 0 0 0 0 0 0 0 0 0 0 0 0 0 0 0 0 127 0" result="hardAlpha"/>
<feOffset dx="-5" dy="8"/>
<feColorMatrix type="matrix" values="0 0 0 0 0.894118 0 0 0 0 0.894118 0 0 0 0 0.905882 0 0 0 1 0"/>
<feBlend mode="normal" in2="BackgroundImageFix" result="effect1_dropShadow"/>
<feBlend mode="normal" in="SourceGraphic" in2="effect1_dropShadow" result="shape"/>
</filter>
<filter id="filter3_d" x="12" y="225.156" width="173.367" height="197.844" filterUnits="userSpaceOnUse" color-interpolation-filters="sRGB">
<feFlood flood-opacity="0" result="BackgroundImageFix"/>
<feColorMatrix in="SourceAlpha" type="matrix" values="0 0 0 0 0 0 0 0 0 0 0 0 0 0 0 0 0 0 127 0" result="hardAlpha"/>
<feOffset dx="-5" dy="8"/>
<feColorMatrix type="matrix" values="0 0 0 0 0.894118 0 0 0 0 0.894118 0 0 0 0 0.905882 0 0 0 1 0"/>
<feBlend mode="normal" in2="BackgroundImageFix" result="effect1_dropShadow"/>
<feBlend mode="normal" in="SourceGraphic" in2="effect1_dropShadow" result="shape"/>
</filter>
<filter id="filter4_d" x="12" y="440" width="173.367" height="197.844" filterUnits="userSpaceOnUse" color-interpolation-filters="sRGB">
<feFlood flood-opacity="0" result="BackgroundImageFix"/>
<feColorMatrix in="SourceAlpha" type="matrix" values="0 0 0 0 0 0 0 0 0 0 0 0 0 0 0 0 0 0 127 0" result="hardAlpha"/>
<feOffset dx="-5" dy="8"/>
<feColorMatrix type="matrix" values="0 0 0 0 0.894118 0 0 0 0 0.894118 0 0 0 0 0.905882 0 0 0 1 0"/>
<feBlend mode="normal" in2="BackgroundImageFix" result="effect1_dropShadow"/>
<feBlend mode="normal" in="SourceGraphic" in2="effect1_dropShadow" result="shape"/>
</filter>
<filter id="filter5_d" x="202.816" y="225.156" width="173.367" height="197.844" filterUnits="userSpaceOnUse" color-interpolation-filters="sRGB">
<feFlood flood-opacity="0" result="BackgroundImageFix"/>
<feColorMatrix in="SourceAlpha" type="matrix" values="0 0 0 0 0 0 0 0 0 0 0 0 0 0 0 0 0 0 127 0" result="hardAlpha"/>
<feOffset dx="-5" dy="8"/>
<feColorMatrix type="matrix" values="0 0 0 0 0.894118 0 0 0 0 0.894118 0 0 0 0 0.905882 0 0 0 1 0"/>
<feBlend mode="normal" in2="BackgroundImageFix" result="effect1_dropShadow"/>
<feBlend mode="normal" in="SourceGraphic" in2="effect1_dropShadow" result="shape"/>
</filter>
<filter id="filter6_d" x="202.816" y="440" width="173.367" height="197.844" filterUnits="userSpaceOnUse" color-interpolation-filters="sRGB">
<feFlood flood-opacity="0" result="BackgroundImageFix"/>
<feColorMatrix in="SourceAlpha" type="matrix" values="0 0 0 0 0 0 0 0 0 0 0 0 0 0 0 0 0 0 127 0" result="hardAlpha"/>
<feOffset dx="-5" dy="8"/>
<feColorMatrix type="matrix" values="0 0 0 0 0.894118 0 0 0 0 0.894118 0 0 0 0 0.905882 0 0 0 1 0"/>
<feBlend mode="normal" in2="BackgroundImageFix" result="effect1_dropShadow"/>
<feBlend mode="normal" in="SourceGraphic" in2="effect1_dropShadow" result="shape"/>
</filter>
<filter id="filter7_d" x="393.633" y="225.156" width="173.367" height="197.844" filterUnits="userSpaceOnUse" color-interpolation-filters="sRGB">
<feFlood flood-opacity="0" result="BackgroundImageFix"/>
<feColorMatrix in="SourceAlpha" type="matrix" values="0 0 0 0 0 0 0 0 0 0 0 0 0 0 0 0 0 0 127 0" result="hardAlpha"/>
<feOffset dx="-5" dy="8"/>
<feColorMatrix type="matrix" values="0 0 0 0 0.894118 0 0 0 0 0.894118 0 0 0 0 0.905882 0 0 0 1 0"/>
<feBlend mode="normal" in2="BackgroundImageFix" result="effect1_dropShadow"/>
<feBlend mode="normal" in="SourceGraphic" in2="effect1_dropShadow" result="shape"/>
</filter>
<filter id="filter8_d" x="393.633" y="440" width="173.367" height="197.844" filterUnits="userSpaceOnUse" color-interpolation-filters="sRGB">
<feFlood flood-opacity="0" result="BackgroundImageFix"/>
<feColorMatrix in="SourceAlpha" type="matrix" values="0 0 0 0 0 0 0 0 0 0 0 0 0 0 0 0 0 0 127 0" result="hardAlpha"/>
<feOffset dx="-5" dy="8"/>
<feColorMatrix type="matrix" values="0 0 0 0 0.894118 0 0 0 0 0.894118 0 0 0 0 0.905882 0 0 0 1 0"/>
<feBlend mode="normal" in2="BackgroundImageFix" result="effect1_dropShadow"/>
<feBlend mode="normal" in="SourceGraphic" in2="effect1_dropShadow" result="shape"/>
</filter>
</defs>
</svg>
